# Rhino

g object_1
v 141.1088562011719 -53.84952163696289 3.573042869567871
v 91.61087799072266 -53.84952163696289 3.573042869567871
v 141.1088562011719 -53.84952163696289 1.704010009765625
v 91.61087799072266 -53.84952163696289 1.704010009765625
v 116.3598709106445 -53.84952163696289 3.573042869567871
v 116.3598709106445 -53.84952163696289 1.704010009765625
v 141.1088562011719 -53.84952163696289 5.918554627512909e-14
v 91.61087799072266 -53.84952163696289 5.671743118023341e-14
v 141.1088562011719 -76.48499298095703 8.305944094403467e-14
v 91.61087799072266 -76.48499298095703 8.059132923727078e-14
v 116.3598709106445 -53.84952163696289 5.795148703361536e-14
v 141.1088562011719 -65.16725921630859 7.112249022145009e-14
v 116.3598709106445 -76.48499298095703 8.182538847878451e-14
v 91.61087799072266 -65.16725921630859 6.86543785146862e-14
v 141.1088562011719 -76.48499298095703 1.704010009765625
v 141.1088562011719 -76.48499298095703 3.573042869567871
v 91.61087799072266 -76.48499298095703 3.573042869567871
v 116.3598709106445 -76.48499298095703 3.573042869567871
v 91.61087799072266 -76.48499298095703 1.704010009765625
v 116.3598709106445 -76.48499298095703 1.704010009765625
v 141.1088562011719 -76.48499298095703 3.573042869567871
v 91.61087799072266 -76.48499298095703 3.573042869567871
v 141.1088562011719 -53.84952163696289 3.573042869567871
v 91.61087799072266 -53.84952163696289 3.573042869567871
v 116.3598709106445 -53.84952163696289 3.573042869567871
v 116.3598709106445 -76.48499298095703 3.573042869567871
v 141.1088562011719 -65.16725921630859 3.573042869567871
v 91.61087799072266 -65.16725921630859 3.573042869567871
v 141.1088562011719 -53.84952163696289 3.573042869567871
v 141.1088562011719 -76.48499298095703 3.573042869567871
v 141.1088562011719 -53.84952163696289 5.918554627512909e-14
v 141.1088562011719 -76.48499298095703 8.305944094403467e-14
v 141.1088562011719 -53.84952163696289 1.704010009765625
v 141.1088562011719 -65.16725921630859 7.112249022145009e-14
v 141.1088562011719 -76.48499298095703 0.8520050048828125
v 141.1088562011719 -76.48499298095703 1.704010009765625
v 141.1088562011719 -65.16725921630859 3.573042869567871
v 141.1088562011719 -53.84952163696289 0.8520050048828125
v 91.61087799072266 -53.84952163696289 3.573042869567871
v 91.61087799072266 -76.48499298095703 3.573042869567871
v 91.61087799072266 -53.84952163696289 5.671743118023341e-14
v 91.61087799072266 -76.48499298095703 8.059132923727078e-14
v 91.61087799072266 -53.84952163696289 1.704010009765625
v 91.61087799072266 -65.16725921630859 6.86543785146862e-14
v 91.61087799072266 -76.48499298095703 0.8520050048828125
v 91.61087799072266 -76.48499298095703 1.704010009765625
v 91.61087799072266 -65.16725921630859 3.573042869567871
v 91.61087799072266 -53.84952163696289 0.8520050048828125
v 141.1088562011719 -77.95182037353516 1.704010009765625
v 91.61087799072266 -77.95182037353516 1.704010009765625
v 141.1088562011719 -76.48499298095703 1.704010009765625
v 91.61087799072266 -76.48499298095703 1.704010009765625
v 141.1088562011719 -77.21840667724609 1.704010009765625
v 91.61087799072266 -77.21840667724609 1.704010009765625
v 116.3598709106445 -77.95182037353516 1.704010009765625
v 116.3598709106445 -76.48499298095703 1.704010009765625
v 141.1088562011719 -76.48499298095703 8.305944094403467e-14
v 91.61087799072266 -76.48499298095703 8.059132923727078e-14
v 141.1088562011719 -77.95182037353516 8.460652290527213e-14
v 91.61087799072266 -77.95182037353516 8.213841119850823e-14
v 116.3598709106445 -76.48499298095703 8.182538847878451e-14
v 141.1088562011719 -77.21840667724609 8.383298531278519e-14
v 116.3598709106445 -77.95182037353516 8.337247044002197e-14
v 91.61087799072266 -77.21840667724609 8.136487360602129e-14
v 141.1088562011719 -77.95182037353516 8.460652290527213e-14
v 91.61087799072266 -77.95182037353516 8.213841119850823e-14
v 141.1088562011719 -77.95182037353516 1.704010009765625
v 91.61087799072266 -77.95182037353516 1.704010009765625
v 116.3598709106445 -77.95182037353516 1.704010009765625
v 116.3598709106445 -77.95182037353516 8.337247044002197e-14
v 141.1088562011719 -77.95182037353516 0.8520050048828125
v 91.61087799072266 -77.95182037353516 0.8520050048828125
v 141.1088562011719 -77.95182037353516 8.460652290527213e-14
v 141.1088562011719 -76.48499298095703 8.305944094403467e-14
v 141.1088562011719 -77.95182037353516 1.704010009765625
v 141.1088562011719 -76.48499298095703 1.704010009765625
v 141.1088562011719 -76.48499298095703 0.8520050048828125
v 141.1088562011719 -77.21840667724609 1.704010009765625
v 141.1088562011719 -77.21840667724609 8.383298531278519e-14
v 141.1088562011719 -77.95182037353516 0.8520050048828125
v 91.61087799072266 -77.95182037353516 8.213841119850823e-14
v 91.61087799072266 -76.48499298095703 8.059132923727078e-14
v 91.61087799072266 -77.95182037353516 1.704010009765625
v 91.61087799072266 -76.48499298095703 1.704010009765625
v 91.61087799072266 -76.48499298095703 0.8520050048828125
v 91.61087799072266 -77.21840667724609 1.704010009765625
v 91.61087799072266 -77.21840667724609 8.136487360602129e-14
v 91.61087799072266 -77.95182037353516 0.8520050048828125
v 141.1088562011719 -52.3826904296875 1.704010009765625
v 91.61087799072266 -52.3826904296875 1.704010009765625
v 141.1088562011719 -52.3826904296875 5.763846431389164e-14
v 91.61087799072266 -52.3826904296875 5.517034921899595e-14
v 141.1088562011719 -52.3826904296875 0.8520050048828125
v 116.3598709106445 -52.3826904296875 5.64044050723779e-14
v 91.61087799072266 -52.3826904296875 0.8520050048828125
v 116.3598709106445 -52.3826904296875 1.704010009765625
v 141.1088562011719 -52.3826904296875 5.763846431389164e-14
v 91.61087799072266 -52.3826904296875 5.517034921899595e-14
v 141.1088562011719 -53.84952163696289 5.918554627512909e-14
v 91.61087799072266 -53.84952163696289 5.671743118023341e-14
v 116.3598709106445 -53.84952163696289 5.795148703361536e-14
v 116.3598709106445 -52.3826904296875 5.64044050723779e-14
v 141.1088562011719 -53.11610794067383 5.841200190637857e-14
v 91.61087799072266 -53.11610794067383 5.594389019961468e-14
v 141.1088562011719 -53.84952163696289 1.704010009765625
v 91.61087799072266 -53.84952163696289 1.704010009765625
v 141.1088562011719 -52.3826904296875 1.704010009765625
v 91.61087799072266 -52.3826904296875 1.704010009765625
v 116.3598709106445 -52.3826904296875 1.704010009765625
v 141.1088562011719 -53.11610794067383 1.704010009765625
v 91.61087799072266 -53.11610794067383 1.704010009765625
v 116.3598709106445 -53.84952163696289 1.704010009765625
v 141.1088562011719 -52.3826904296875 1.704010009765625
v 141.1088562011719 -53.84952163696289 1.704010009765625
v 141.1088562011719 -52.3826904296875 5.763846431389164e-14
v 141.1088562011719 -53.84952163696289 5.918554627512909e-14
v 141.1088562011719 -52.3826904296875 0.8520050048828125
v 141.1088562011719 -53.11610794067383 5.841200190637857e-14
v 141.1088562011719 -53.11610794067383 1.704010009765625
v 141.1088562011719 -53.84952163696289 0.8520050048828125
v 91.61087799072266 -52.3826904296875 1.704010009765625
v 91.61087799072266 -53.84952163696289 1.704010009765625
v 91.61087799072266 -52.3826904296875 5.517034921899595e-14
v 91.61087799072266 -53.84952163696289 5.671743118023341e-14
v 91.61087799072266 -52.3826904296875 0.8520050048828125
v 91.61087799072266 -53.11610794067383 5.594389019961468e-14
v 91.61087799072266 -53.11610794067383 1.704010009765625
v 91.61087799072266 -53.84952163696289 0.8520050048828125
vt 0.99853515625 0.9469195604324341
vt 0.1691864430904388 0.9469195604324341
vt 0.99853515625 0.976826012134552
vt 0.1691864430904388 0.976826012134552
vt 0.5838608145713806 0.9469195604324341
vt 0.5838608145713806 0.976826012134552
vt 0.99853515625 0.3799318075180054
vt 0.1691864430904388 0.3799318075180054
vt 0.99853515625 0.7583987712860107
vt 0.1691864430904388 0.7583987712860107
vt 0.5838608145713806 0.3799318075180054
vt 0.99853515625 0.5691652894020081
vt 0.5838608145713806 0.7583987712860107
vt 0.1691864430904388 0.5691652894020081
vt 0.99853515625 0.9155482053756714
vt 0.99853515625 0.9454547166824341
vt 0.1691864430904388 0.9454547166824341
vt 0.5838608145713806 0.9454547166824341
vt 0.1691864430904388 0.9155482053756714
vt 0.5838608145713806 0.9155482053756714
vt 0.99853515625 0
vt 0.1691864430904388 0
vt 0.99853515625 0.3784669637680054
vt 0.1691864430904388 0.3784669637680054
vt 0.5838608145713806 0.3784669637680054
vt 0.5838608145713806 0
vt 0.99853515625 0.1892334818840027
vt 0.1691864430904388 0.1892334818840027
vt 0.04924082756042481 0
vt 0.04924082756042481 0.3799318075180054
vt 0.1077487915754318 0
vt 0.1077487915754318 0.3799318075180054
vt 0.07984592020511627 0
vt 0.1077487915754318 0.1899659037590027
vt 0.09379735589027405 0.3799318075180054
vt 0.07984592020511627 0.3799318075180054
vt 0.04924082756042481 0.1899659037590027
vt 0.09379735589027405 0
vt 0.1092136353254318 0
vt 0.1092136353254318 0.3799318075180054
vt 0.1677215993404388 0
vt 0.1677215993404388 0.3799318075180054
vt 0.1398187279701233 0
vt 0.1677215993404388 0.1899659037590027
vt 0.1537701636552811 0.3799318075180054
vt 0.1398187279701233 0.3799318075180054
vt 0.1092136353254318 0.1899659037590027
vt 0.1537701636552811 0
vt 0.0246204137802124 0
vt 0.0246204137802124 0.8308135867118835
vt 0.04777598381042481 0
vt 0.04777598381042481 0.8308135867118835
vt 0.0361981987953186 0
vt 0.0361981987953186 0.8308135867118835
vt 0.0246204137802124 0.4154067933559418
vt 0.04777598381042481 0.4154067933559418
vt 0 0
vt 0 0.8308135867118835
vt 0.0231555700302124 0
vt 0.0231555700302124 0.8308135867118835
vt 0 0.4154067933559418
vt 0.0115777850151062 0
vt 0.0231555700302124 0.4154067933559418
vt 0.0115777850151062 0.8308135867118835
vt 0.99853515625 0.8869467377662659
vt 0.1691864430904388 0.8869467377662659
vt 0.99853515625 0.9140833616256714
vt 0.1691864430904388 0.9140833616256714
vt 0.5838608145713806 0.9140833616256714
vt 0.5838608145713806 0.8869467377662659
vt 0.99853515625 0.9005150198936462
vt 0.1691864430904388 0.9005150198936462
vt 0.5845932364463806 0.7844840288162231
vt 0.5845932364463806 0.8076395988464356
vt 0.6131947040557861 0.7844840288162231
vt 0.6131947040557861 0.8076395988464356
vt 0.598893940448761 0.8076395988464356
vt 0.6131947040557861 0.7960618138313294
vt 0.5845932364463806 0.7960618138313294
vt 0.598893940448761 0.7844840288162231
vt 0.5845932364463806 0.7598636150360107
vt 0.5845932364463806 0.7830191850662231
vt 0.6131947040557861 0.7598636150360107
vt 0.6131947040557861 0.7830191850662231
vt 0.598893940448761 0.7830191850662231
vt 0.6131947040557861 0.7714414000511169
vt 0.5845932364463806 0.7714414000511169
vt 0.598893940448761 0.7598636150360107
vt 0.99853515625 0.8583452701568604
vt 0.1691864430904388 0.8583452701568604
vt 0.99853515625 0.8854818940162659
vt 0.1691864430904388 0.8854818940162659
vt 0.99853515625 0.8719136118888855
vt 0.5838608145713806 0.8854818940162659
vt 0.1691864430904388 0.8719136118888855
vt 0.5838608145713806 0.8583452701568604
vt 0.99853515625 0.833724856376648
vt 0.1691864430904388 0.833724856376648
vt 0.99853515625 0.8568804264068604
vt 0.1691864430904388 0.8568804264068604
vt 0.5838608145713806 0.8568804264068604
vt 0.5838608145713806 0.833724856376648
vt 0.99853515625 0.8453026413917542
vt 0.1691864430904388 0.8453026413917542
vt 0.99853515625 0.8091044425964356
vt 0.1691864430904388 0.8091044425964356
vt 0.99853515625 0.832260012626648
vt 0.1691864430904388 0.832260012626648
vt 0.5838608145713806 0.832260012626648
vt 0.99853515625 0.8206822276115418
vt 0.1691864430904388 0.8206822276115418
vt 0.5838608145713806 0.8091044425964356
vt 0.1691864430904388 0.7844840288162231
vt 0.1691864430904388 0.8076395988464356
vt 0.1977878957986832 0.7844840288162231
vt 0.1977878957986832 0.8076395988464356
vt 0.1834871768951416 0.7844840288162231
vt 0.1977878957986832 0.7960618138313294
vt 0.1691864430904388 0.7960618138313294
vt 0.1834871768951416 0.8076395988464356
vt 0.1691864430904388 0.7598636150360107
vt 0.1691864430904388 0.7830191850662231
vt 0.1977878957986832 0.7598636150360107
vt 0.1977878957986832 0.7830191850662231
vt 0.1834871768951416 0.7598636150360107
vt 0.1977878957986832 0.7714414000511169
vt 0.1691864430904388 0.7714414000511169
vt 0.1834871768951416 0.7830191850662231
vn 9.063960866923155e-16 1 0
vn 9.063960866923155e-16 1 -2.487177994890113e-15
vn 8.308630882912158e-16 1 0
vn 8.308630882912158e-16 1 -2.487177994890113e-15
vn 9.063960866923155e-16 1 0
vn 8.308630882912158e-16 1 0
vn 4.986289069350484e-17 -1.054711873393899e-15 -1
vn 4.986289069350484e-17 -1.054711873393899e-15 -1
vn 4.986289069350484e-17 -1.054711873393899e-15 -1
vn 4.986289069350484e-17 -1.054711873393899e-15 -1
vn 4.986289069350484e-17 -1.054711873393899e-15 -1
vn 4.986289069350484e-17 -1.054711873393899e-15 -1
vn 4.986289069350484e-17 -1.054711873393899e-15 -1
vn 4.986289069350484e-17 -1.054711873393899e-15 -1
vn -6.042640930879165e-16 -1 0
vn -3.021320465439582e-16 -1 0
vn -3.021320465439582e-16 -1 0
vn -6.042640930879165e-16 -1 1.243588997445057e-15
vn -6.042640930879165e-16 -1 0
vn -6.042640930879165e-16 -1 1.243588997445057e-15
vn -5.664975541826972e-17 1.054088351265601e-15 1
vn -5.664975541826972e-17 1.054088351265601e-15 1
vn -4.720813061813225e-17 1.054088351265601e-15 1
vn -4.720813061813225e-17 1.054088351265601e-15 1
vn -4.720813061813225e-17 1.041831466881476e-15 1
vn -5.664975541826972e-17 1.041831466881476e-15 1
vn -5.192894301820098e-17 1.054088351265601e-15 1
vn -5.192894301820098e-17 1.054088351265601e-15 1
vn 1 0 0
vn 1 0 0
vn 1 0 0
vn 1 0 0
vn 1 -7.216449660063518e-16 7.611275140218356e-31
vn 1 -7.216449660063518e-16 7.611275140218356e-31
vn 1 -7.216449660063518e-16 7.611275140218356e-31
vn 1 -7.216449660063518e-16 7.611275140218356e-31
vn 1 -7.216449660063518e-16 7.611275140218356e-31
vn 1 -7.216449660063518e-16 7.611275140218356e-31
vn -1 6.411252728865291e-16 -1.644166393523383e-30
vn -1 6.411252728865291e-16 0
vn -1 6.411252728865291e-16 -1.644166393523383e-30
vn -1 6.411252728865291e-16 0
vn -1 7.216449660063518e-16 -7.611275140218356e-31
vn -1 7.216449660063518e-16 -7.611275140218356e-31
vn -1 7.216449660063518e-16 -7.611275140218356e-31
vn -1 7.216449660063518e-16 -7.611275140218356e-31
vn -1 7.216449660063518e-16 -7.611275140218356e-31
vn -1 7.216449660063518e-16 -7.611275140218356e-31
vn -5.008791028989886e-17 1.052258548341295e-15 1
vn -5.008791028989886e-17 1.052258548341295e-15 1
vn -5.008791028989886e-17 1.052258548341295e-15 1
vn -5.008791028989886e-17 1.052258548341295e-15 1
vn -5.008791028989886e-17 1.052258548341295e-15 1
vn -5.008791028989886e-17 1.052258548341295e-15 1
vn -5.008791028989886e-17 1.052258548341295e-15 1
vn -5.008791028989886e-17 1.157484392587513e-15 1
vn 4.986289069350484e-17 -1.054711873393899e-15 -1
vn 4.986289069350484e-17 -1.054711873393899e-15 -1
vn 4.986289069350484e-17 -1.054711873393899e-15 -1
vn 4.986289069350484e-17 -1.054711873393899e-15 -1
vn 4.986289069350484e-17 -1.054711873393899e-15 -1
vn 4.986289069350484e-17 -1.054711873393899e-15 -1
vn 4.986289069350484e-17 -1.054711873393899e-15 -1
vn 4.986289069350484e-17 -1.054711873393899e-15 -1
vn -6.411252728865291e-16 -1 0
vn -6.411252728865291e-16 -1 0
vn -6.411252728865291e-16 -1 0
vn -6.411252728865291e-16 -1 0
vn -6.411252728865291e-16 -1 2.981633266091574e-15
vn -6.411252728865291e-16 -1 2.981633266091574e-15
vn -6.411252728865291e-16 -1 0
vn -6.411252728865291e-16 -1 0
vn 1 0 0
vn 1 0 0
vn 1 0 0
vn 1 0 0
vn 1 -7.216449660063518e-16 7.611275140218356e-31
vn 1 -7.216449660063518e-16 7.611275140218356e-31
vn 1 -7.216449660063518e-16 7.611275140218356e-31
vn 1 -7.216449660063518e-16 7.611275140218356e-31
vn -1 0 0
vn -1 0 0
vn -1 0 0
vn -1 0 0
vn -1 7.216449660063518e-16 -7.611275140218356e-31
vn -1 7.216449660063518e-16 -7.611275140218356e-31
vn -1 7.216449660063518e-16 -7.611275140218356e-31
vn -1 7.216449660063518e-16 -7.611275140218356e-31
vn 9.616878563902345e-16 1 0
vn 9.616878563902345e-16 1 0
vn 8.014065646383818e-16 1 0
vn 8.014065646383818e-16 1 0
vn 8.815472105143081e-16 1 0
vn 8.014065646383818e-16 1 0
vn 8.815472105143081e-16 1 0
vn 9.616878563902345e-16 1 0
vn 4.986289069350484e-17 -1.054711873393899e-15 -1
vn 4.986289069350484e-17 -1.054711873393899e-15 -1
vn 4.986289069350484e-17 -1.054711873393899e-15 -1
vn 4.986289069350484e-17 -1.054711873393899e-15 -1
vn 4.986289069350484e-17 -1.054711873393899e-15 -1
vn 4.986289069350484e-17 -1.054711873393899e-15 -1
vn 4.986289069350484e-17 -1.054711873393899e-15 -1
vn 4.986289069350484e-17 -1.054711873393899e-15 -1
vn -5.509670065714426e-17 1.052258548341295e-15 1
vn -5.509670065714426e-17 1.052258548341295e-15 1
vn -5.008791028989886e-17 1.052258548341295e-15 1
vn -5.008791028989886e-17 1.052258548341295e-15 1
vn -5.008791028989886e-17 9.470327040950774e-16 1
vn -5.509670065714426e-17 1.052258548341295e-15 1
vn -5.259230547352156e-17 1.052258548341295e-15 1
vn -5.509670065714426e-17 9.470327040950774e-16 1
vn 1 0 0
vn 1 0 0
vn 1 0 0
vn 1 0 0
vn 1 -7.216449660063518e-16 7.611275140218356e-31
vn 1 -7.216449660063518e-16 7.611275140218356e-31
vn 1 -7.216449660063518e-16 7.611275140218356e-31
vn 1 -7.216449660063518e-16 7.611275140218356e-31
vn -1 0 0
vn -1 0 0
vn -1 0 0
vn -1 0 0
vn -1 7.216449660063518e-16 -7.611275140218356e-31
vn -1 7.216449660063518e-16 -7.611275140218356e-31
vn -1 7.216449660063518e-16 -7.611275140218356e-31
vn -1 7.216449660063518e-16 -7.611275140218356e-31
f 5/5/5 1/1/1 3/3/3 6/6/6
f 2/2/2 5/5/5 6/6/6 4/4/4
f 11/11/11 7/7/7 12/12/12
f 11/11/11 14/14/14 8/8/8
f 13/13/13 11/11/11 12/12/12
f 11/11/11 13/13/13 14/14/14
f 13/13/13 10/10/10 14/14/14
f 9/9/9 13/13/13 12/12/12
f 20/20/20 15/15/15 16/16/16 18/18/18
f 19/19/19 20/20/20 18/18/18 17/17/17
f 26/26/26 21/21/21 27/27/27
f 26/26/26 28/28/28 22/22/22
f 25/25/25 26/26/26 27/27/27
f 26/26/26 25/25/25 28/28/28
f 25/25/25 24/24/24 28/28/28
f 23/23/23 25/25/25 27/27/27
f 37/37/37 33/33/33 29/29/29
f 30/30/30 36/36/36 37/37/37
f 37/37/37 36/36/36 34/34/34
f 34/34/34 33/33/33 37/37/37
f 34/34/34 31/31/31 38/38/38
f 32/32/32 34/34/34 35/35/35
f 34/34/34 36/36/36 35/35/35
f 38/38/38 33/33/33 34/34/34
f 47/47/47 39/39/39 43/43/43
f 40/40/40 47/47/47 46/46/46
f 47/47/47 44/44/44 46/46/46
f 44/44/44 47/47/47 43/43/43
f 44/44/44 48/48/48 41/41/41
f 42/42/42 45/45/45 44/44/44
f 44/44/44 45/45/45 46/46/46
f 48/48/48 44/44/44 43/43/43
f 55/55/55 49/49/49 53/53/53
f 55/55/55 54/54/54 50/50/50
f 54/54/54 55/55/55 53/53/53
f 54/54/54 53/53/53 51/51/51 56/56/56
f 56/56/56 52/52/52 54/54/54
f 61/61/61 57/57/57 62/62/62
f 61/61/61 64/64/64 58/58/58
f 64/64/64 61/61/61 62/62/62
f 62/62/62 63/63/63 64/64/64
f 63/63/63 60/60/60 64/64/64
f 59/59/59 63/63/63 62/62/62
f 70/70/70 65/65/65 71/71/71
f 70/70/70 72/72/72 66/66/66
f 69/69/69 70/70/70 71/71/71
f 70/70/70 69/69/69 72/72/72
f 69/69/69 68/68/68 72/72/72
f 67/67/67 69/69/69 71/71/71
f 78/78/78 79/79/79 77/77/77
f 79/79/79 74/74/74 77/77/77
f 80/80/80 73/73/73 79/79/79
f 78/78/78 75/75/75 80/80/80
f 78/78/78 77/77/77 76/76/76
f 80/80/80 79/79/79 78/78/78
f 86/86/86 85/85/85 87/87/87
f 87/87/87 85/85/85 82/82/82
f 88/88/88 87/87/87 81/81/81
f 86/86/86 88/88/88 83/83/83
f 86/86/86 84/84/84 85/85/85
f 88/88/88 86/86/86 87/87/87
f 96/96/96 89/89/89 93/93/93
f 96/96/96 95/95/95 90/90/90
f 94/94/94 96/96/96 93/93/93
f 96/96/96 94/94/94 95/95/95
f 94/94/94 92/92/92 95/95/95
f 91/91/91 94/94/94 93/93/93
f 101/101/101 104/104/104 102/102/102
f 102/102/102 104/104/104 98/98/98
f 103/103/103 102/102/102 97/97/97
f 101/101/101 103/103/103 99/99/99
f 101/101/101 100/100/100 104/104/104
f 103/103/103 101/101/101 102/102/102
f 112/112/112 105/105/105 110/110/110
f 112/112/112 111/111/111 106/106/106
f 109/109/109 112/112/112 110/110/110
f 112/112/112 109/109/109 111/111/111
f 109/109/109 108/108/108 111/111/111
f 107/107/107 109/109/109 110/110/110
f 117/117/117 119/119/119 120/120/120
f 119/119/119 114/114/114 120/120/120
f 117/117/117 113/113/113 119/119/119
f 118/118/118 115/115/115 117/117/117
f 118/118/118 120/120/120 116/116/116
f 117/117/117 120/120/120 118/118/118
f 125/125/125 128/128/128 127/127/127
f 127/127/127 128/128/128 122/122/122
f 125/125/125 127/127/127 121/121/121
f 126/126/126 125/125/125 123/123/123
f 126/126/126 124/124/124 128/128/128
f 125/125/125 126/126/126 128/128/128
